<?xml version="1.0" encoding="UTF-8"?>
<svg id="Camada_2" data-name="Camada 2" xmlns="http://www.w3.org/2000/svg" viewBox="0 0 2157.87 756.35">
  <defs>
    <style>
      .cls-1 {
        fill: #4510a3;
      }

      .cls-2 {
        fill: #0cd2ab;
      }

      .cls-3 {
        fill: #333;
      }
    </style>
  </defs>
  <g id="Camada_1-2" data-name="Camada 1">
    <path class="cls-1" d="m262.62,318.46h-29.57c-16.32,0-29.59,13.27-29.59,29.59v160.84c0,23.45-6.01,41.32-18.36,54.6-11.97,12.86-27.74,19.11-48.21,19.11-17.37,0-29.27-4.02-36.4-12.3-7.68-8.9-11.74-25.21-11.74-47.14v-175.12c0-16.32-13.27-29.59-29.59-29.59h-29.57c-16.32,0-29.59,13.27-29.59,29.59v176.31c0,45.17,10.93,79.84,32.48,103.04,21.95,23.65,53.87,35.64,94.88,35.64,29.07,0,54.85-7.61,76.64-22.61.87-.6,1.73-1.2,2.58-1.82,4.25,11.14,15.05,19.08,27.66,19.08h28.38c16.32,0,29.59-13.27,29.59-29.59v-280.03c0-16.32-13.27-29.59-29.59-29.59Z"/>
    <path class="cls-1" d="m657.39,313.1c-29.44,0-55.73,7.81-78.12,23.2-7.57,5.2-14.42,11.1-20.51,17.66-5.36-7.29-11.54-13.6-18.5-18.89-19.21-14.58-43.85-21.97-73.24-21.97s-53.85,7.47-74.54,22.21c-1.73,1.23-3.42,2.51-5.08,3.84-3.78-12.14-15-20.69-28.24-20.69h-27.63c-6.05,0-25.8,2.2-25.8,30.49v279.14c0,16.32,13.27,29.59,29.59,29.59h29.57c16.32,0,29.59-13.27,29.59-29.59v-160.24c0-23.97,5.64-42.94,16.76-56.38,10.46-12.64,24.21-18.53,43.27-18.53,22.73,0,29.35,8.6,31.51,11.41,4.87,6.34,10.67,20.01,10.67,49.22v174.52c0,16.32,13.27,29.59,29.59,29.59h29.57c16.32,0,29.59-13.27,29.59-29.59v-160.24c0-24.26,5.55-42.67,16.97-56.27,10.52-12.54,24.8-18.63,43.66-18.63,22.73,0,29.35,8.6,31.51,11.41,4.87,6.34,10.67,20.02,10.67,49.22v174.52c0,16.32,13.27,29.59,29.59,29.59h29.57c16.32,0,29.59-13.27,29.59-29.59v-177.49c0-46-9.84-79.49-30.08-102.38-20.6-23.29-50.73-35.1-89.56-35.1Z"/>
    <path class="cls-1" d="m1039.48,335.01c-22.84-14.54-50.03-21.91-80.79-21.91s-58.36,8.02-81.17,23.85c-.09.06-.19.13-.28.2v-124.25c0-18.55-15.09-33.65-33.65-33.65h-21.46c-18.55,0-33.65,15.09-33.65,33.65v411.14c0,18.55,15.09,33.65,33.65,33.65h20.87c14.15,0,26.28-8.78,31.25-21.17,1.04.78,2.09,1.54,3.16,2.3,22.82,16.07,50.17,24.23,81.29,24.23s57.35-7.37,80.2-21.91c22.77-14.49,40.76-35.19,53.48-61.54,12.39-25.68,18.67-56.46,18.67-91.51s-6.16-65.74-18.32-91.39c-12.53-26.41-30.45-47.15-53.24-61.66Zm-17.78,153.05c0,32.83-6.91,57.35-20.54,72.88h0c-13.14,14.97-30.33,22.25-52.58,22.25s-39.21-7.32-52.14-22.38c-13.53-15.75-20.39-40.23-20.39-72.75s6.86-57.6,20.39-73.35c12.93-15.06,29.98-22.38,52.14-22.38s39.37,7.35,52.51,22.46c13.68,15.75,20.61,40.4,20.61,73.27Z"/>
    <path class="cls-1" d="m1329.92,368.09l.33-23.83c.2-14.17-9.63-26.51-23.38-29.35-2.55-.53-5.18-.91-7.86-1.14-5.18-.44-11.06-.67-17.5-.67-17.35,0-34.23,3.45-50.2,10.25-9.37,4-18.08,9.17-26.05,15.48-3.92-11.85-15.18-20.38-28.11-20.38h-27.6c-13.41,0-26.94,9.38-26.94,30.34v279.28c0,16.32,13.27,29.59,29.59,29.59h30.17c16.32,0,29.59-13.27,29.59-29.59v-166.79c0-11.59,2.51-22.25,7.68-32.58s12.14-17.78,22.02-24.16c9.62-6.22,20.91-9.25,34.5-9.25,5.52,0,10.41.25,14.53.75,1.21.15,2.49.36,3.81.63,8.63,1.77,17.5-.4,24.37-5.92,6.9-5.55,10.93-13.81,11.05-22.67Z"/>
    <path class="cls-1" d="m1551.17,333.38h-.01c-21.82-13.46-48.62-20.28-79.66-20.28s-59.7,7.48-84.23,22.24c-24.61,14.81-43.97,35.76-57.56,62.26-13.33,25.98-20.08,56.62-20.08,91.06,0,53.72,15.59,96.66,46.34,127.62,30.78,31.02,72.86,46.75,125.05,46.75,24.34,0,47.89-3.88,70-11.53,19.69-6.82,36.79-16.34,50.82-28.29,10.29-8.77,13.3-23.39,7.33-35.56l-8.44-17.18c-3.91-7.95-11.09-13.69-19.7-15.76-8.55-2.05-17.46-.22-24.47,5.03-9.88,7.4-20.18,12.96-30.64,16.53-13.48,4.61-28.19,6.94-43.71,6.94-27.81,0-48.42-7.39-63-22.61-10.77-11.23-17.63-27.15-20.48-47.48h190.18c16.32,0,29.59-13.27,29.59-29.59v-8.54c0-31.79-5.65-59.99-16.78-83.85-11.57-24.75-28.58-44.18-50.55-57.75Zm-133.44,79.6h0c12.72-15.9,30.3-23.62,53.77-23.62,21.87,0,37.51,6.27,47.82,19.16,6.95,8.7,11.81,19.99,14.48,33.68h-131c3.43-11.3,8.42-21.08,14.93-29.22Z"/>
    <rect class="cls-1" x="1630.08" y="179.24" width="88.75" height="478.43" rx="29.59" ry="29.59"/>
    <rect class="cls-1" x="1733.81" y="179.24" width="88.75" height="478.43" rx="29.59" ry="29.59"/>
    <path class="cls-1" d="m2132.08,318.46h-27.64c-14.23,0-26.14,9.89-28.96,23.5-2.04-1.61-4.14-3.18-6.3-4.68-23.01-16.04-50.43-24.17-81.5-24.17s-57.29,7.23-80.29,21.49c-23.11,14.33-41.19,35.02-53.74,61.49-12.15,25.63-18.32,56.57-18.32,91.98s6.16,65.77,18.31,91.38c12.53,26.44,30.57,47.2,53.62,61.72,23.02,14.51,50.08,21.86,80.42,21.86s57.25-7.99,80.41-23.73c.87-.59,1.73-1.19,2.57-1.8,3.94,11.72,15.03,20.18,28.06,20.18h29.57c16.32,0,29.59-13.27,29.59-29.59v-280.44c0-27.08-19.74-29.19-25.79-29.19Zm-207.42,169.61c0-32.92,6.86-57.59,20.39-73.35,12.93-15.06,29.98-22.38,52.14-22.38s39.63,7.29,52.36,22.29c13.38,15.77,20.17,40.49,20.17,73.44s-6.79,57.07-20.17,72.84c-12.73,15-29.86,22.29-52.36,22.29s-39.21-7.32-52.14-22.38c-13.53-15.75-20.39-40.23-20.39-72.75Z"/>
    <g>
      <path class="cls-3" d="m1370.04,693.76c-2.93-1.84-6.42-2.76-10.45-2.76s-7.5,1.02-10.4,3.07c-2.21,1.56-3.85,3.54-4.93,5.94l-.76-8.21h-6.94c.18,1.72.34,3.45.49,5.2.15,1.75.22,3.45.22,5.11v53.53h7.2v-27.05c1.08,2.27,2.67,4.15,4.8,5.62,2.9,2.02,6.34,3.02,10.31,3.02s7.53-.93,10.49-2.8c2.96-1.87,5.26-4.52,6.89-7.96,1.63-3.44,2.45-7.56,2.45-12.36s-.83-9.01-2.49-12.45c-1.66-3.44-3.96-6.08-6.89-7.91Zm-1.69,33.21c-2.52,2.93-5.91,4.4-10.18,4.4s-7.57-1.47-10.09-4.4c-2.52-2.93-3.78-7.22-3.78-12.85s1.26-10,3.78-12.94c2.52-2.93,5.88-4.4,10.09-4.4s7.66,1.47,10.18,4.4c2.52,2.93,3.78,7.25,3.78,12.94s-1.26,9.91-3.78,12.85Z"/>
      <path class="cls-3" d="m1420.19,693.8c-3.17-1.87-6.92-2.8-11.25-2.8s-7.99.93-11.16,2.8c-3.17,1.87-5.62,4.52-7.34,7.96-1.72,3.44-2.58,7.56-2.58,12.36s.86,8.85,2.58,12.31c1.72,3.47,4.16,6.14,7.34,8,3.17,1.87,6.89,2.8,11.16,2.8s8.08-.93,11.25-2.8c3.17-1.87,5.63-4.53,7.38-8s2.62-7.57,2.62-12.31-.88-8.92-2.62-12.36c-1.75-3.44-4.21-6.09-7.38-7.96Zm-1.11,33.17c-2.49,2.93-5.87,4.4-10.14,4.4s-7.56-1.47-10.05-4.4c-2.49-2.93-3.73-7.22-3.73-12.85s1.24-10,3.73-12.94c2.49-2.93,5.84-4.4,10.05-4.4s7.57,1.47,10.09,4.4,3.78,7.25,3.78,12.94-1.24,9.91-3.73,12.85Z"/>
      <path class="cls-3" d="m1461.93,691c-2.19,0-4.3.43-6.31,1.29-2.02.86-3.76,2.15-5.25,3.87-.86,1-1.55,2.17-2.11,3.49l-.64-7.85h-6.94c.18,1.72.31,3.5.4,5.33.09,1.84.13,3.65.13,5.42v33.88h7.29v-26.32c0-2.19.49-4.27,1.47-6.22.98-1.96,2.43-3.56,4.36-4.8,1.93-1.25,4.19-1.87,6.8-1.87.95,0,1.79.04,2.53.13.74.09,1.56.28,2.45.58l.09-6.4c-.59-.24-1.23-.38-1.91-.44-.68-.06-1.47-.09-2.36-.09Z"/>
      <path class="cls-3" d="m1526.9,697.49c-1.03-1.97-2.64-3.61-4.86-4.89-2.67-1.54-5.75-2.31-9.25-2.31-4.03,0-7.54.9-10.54,2.71-2.99,1.81-5.33,4.4-7.02,7.78-1.69,3.38-2.53,7.38-2.53,12s.84,8.62,2.53,12,4.03,5.97,7.02,7.78c2.99,1.81,6.5,2.71,10.54,2.71,3.38,0,6.46-.79,9.25-2.36,2.09-1.18,3.66-2.64,4.71-4.4v6.05c0,3.2-.92,5.68-2.76,7.42-1.84,1.75-4.65,2.62-8.45,2.62-1.84,0-3.78-.16-5.82-.49-2.04-.33-4.02-.82-5.91-1.47-1.9-.65-3.65-1.45-5.25-2.4l-2.76,11.2c2.73,1.66,5.79,2.89,9.2,3.69,3.41.8,7.37,1.2,11.87,1.2,8.24,0,14.52-2.03,18.85-6.09,4.33-4.06,6.49-9.89,6.49-17.47v-29.25c0-2.01.06-4.06.18-6.14.12-2.07.3-4.12.53-6.14h-15.2l-.83,6.22Zm-2.72,23.3c-1.6,1.84-3.77,2.76-6.49,2.76s-4.98-.92-6.58-2.76c-1.6-1.84-2.4-4.5-2.4-8s.8-6.24,2.4-8.05c1.6-1.81,3.79-2.71,6.58-2.71s4.89.9,6.49,2.71c1.6,1.81,2.4,4.49,2.4,8.05s-.8,6.17-2.4,8Z"/>
      <path class="cls-3" d="m1580.55,690.29c-2.67,0-4.98.53-6.94,1.6-1.96,1.07-3.59,2.7-4.89,4.89-.43.73-.81,1.55-1.17,2.41l-.97-7.92h-15.29c.24,2.02.41,4.06.53,6.14.12,2.08.18,4.15.18,6.22v32.81h16v-20.98c0-2.79.34-5.07,1.02-6.85.68-1.78,1.79-3.1,3.33-3.96,1.54-.86,3.53-1.29,5.96-1.29,1.42,0,2.58.09,3.47.27.89.18,2.07.59,3.56,1.24v-13.87c-.71-.3-1.38-.49-2-.58s-1.56-.13-2.8-.13Z"/>
      <path class="cls-3" d="m1621.82,697.67c-1.02-1.94-2.64-3.58-4.86-4.89-2.82-1.66-5.97-2.49-9.47-2.49-3.91,0-7.35.93-10.31,2.8-2.96,1.87-5.29,4.56-6.98,8.09-1.69,3.53-2.53,7.75-2.53,12.67s.84,9.07,2.53,12.63,4.01,6.27,6.98,8.14c2.96,1.87,6.4,2.8,10.31,2.8,3.38,0,6.48-.79,9.29-2.36,2-1.12,3.51-2.5,4.54-4.15l.13,5.53h15.65v-32.9c0-2.01.07-4.06.22-6.14.15-2.07.31-4.12.49-6.14h-15.21l-.78,6.4Zm-2.77,25.21c-1.66,1.87-3.82,2.8-6.49,2.8s-4.91-.93-6.54-2.8c-1.63-1.87-2.45-4.88-2.45-9.03s.83-7.16,2.49-9.02c1.66-1.87,3.82-2.8,6.49-2.8s4.83.93,6.49,2.8c1.66,1.87,2.49,4.88,2.49,9.02s-.83,7.16-2.49,9.03Z"/>
      <path class="cls-3" d="m1677.02,690.29c-3.44,0-6.52.76-9.25,2.27-2.26,1.25-4.09,2.97-5.49,5.14l-.73-6.43h-15.29c.24,2.02.41,4.06.53,6.14.12,2.08.18,4.12.18,6.14v32.9h15.83v-25.16c0-2.67.77-4.82,2.31-6.45,1.54-1.63,3.56-2.45,6.05-2.45,1.9,0,3.35.58,4.36,1.73,1.01,1.16,1.51,3.19,1.51,6.09v26.23h15.83v-26.94c0-6.58-1.32-11.43-3.96-14.54-2.64-3.11-6.59-4.67-11.87-4.67Z"/>
      <path class="cls-3" d="m1722.01,676.86l-15.83,3.73v10.67h-8.45v11.65h8.45v16c0,6.22,1.61,10.86,4.85,13.92,3.23,3.05,8.05,4.58,14.45,4.58,1.18,0,2.42-.09,3.69-.27,1.27-.18,2.56-.53,3.87-1.07v-12.18c-.83.3-1.62.52-2.36.67-.74.15-1.62.22-2.62.22-1.66,0-3.08-.43-4.27-1.29-1.19-.86-1.78-2.59-1.78-5.2v-15.38h11.03v-11.65h-11.03v-14.4Z"/>
      <path class="cls-3" d="m1774.29,693.13c-3.68-1.9-8-2.85-12.98-2.85s-9.4.95-13.07,2.85c-3.68,1.9-6.52,4.59-8.54,8.09-2.02,3.5-3.02,7.71-3.02,12.63s1.01,9.06,3.02,12.58c2.01,3.53,4.86,6.24,8.54,8.14,3.67,1.9,8.03,2.85,13.07,2.85s9.31-.95,12.98-2.85c3.67-1.9,6.52-4.62,8.54-8.18,2.01-3.56,3.02-7.74,3.02-12.54s-1.01-9.05-3.02-12.58c-2.02-3.53-4.86-6.24-8.54-8.14Zm-6.76,29.74c-1.54,1.87-3.62,2.8-6.22,2.8s-4.77-.93-6.31-2.8c-1.54-1.87-2.31-4.88-2.31-9.03s.77-7.16,2.31-9.02c1.54-1.87,3.65-2.8,6.31-2.8s4.68.93,6.22,2.8c1.54,1.87,2.31,4.88,2.31,9.02s-.77,7.16-2.31,9.03Z"/>
      <path class="cls-3" d="m1845.07,709.67l-9.6-1.69c-1.3-.24-2.25-.64-2.85-1.2-.59-.56-.89-1.26-.89-2.09,0-1.07.53-1.97,1.6-2.71,1.07-.74,2.87-1.11,5.42-1.11,2.13,0,4.43.4,6.89,1.2,2.46.8,4.61,1.82,6.45,3.07l4.09-10.05c-2.31-1.66-5.02-2.87-8.14-3.65-3.11-.77-6.39-1.16-9.83-1.16-4.21,0-7.86.64-10.94,1.91-3.08,1.28-5.45,3.05-7.11,5.33-1.66,2.28-2.49,4.97-2.49,8.05,0,3.38,1.05,6.12,3.16,8.22,2.1,2.1,5.05,3.51,8.85,4.22l9.6,1.69c1.3.24,2.28.62,2.93,1.16.65.53.98,1.25.98,2.13,0,1.13-.52,2.03-1.56,2.71-1.04.68-2.68,1.02-4.93,1.02-2.85,0-5.71-.41-8.58-1.24-2.88-.83-5.47-1.9-7.78-3.2l-3.82,10.31c2.37,1.48,5.26,2.65,8.67,3.51,3.41.86,7.22,1.29,11.43,1.29s7.68-.61,10.76-1.82c3.08-1.21,5.5-2.96,7.25-5.25,1.75-2.28,2.62-5.05,2.62-8.31,0-3.5-1.05-6.27-3.16-8.31-2.1-2.04-5.11-3.39-9.03-4.05Z"/>
      <path class="cls-3" d="m1896.6,693.27c-3.05-1.99-6.86-2.98-11.43-2.98s-8.66.99-12.09,2.98c-3.44,1.99-6.11,4.76-8,8.31-1.9,3.56-2.84,7.62-2.84,12.18,0,7.35,2.27,13.13,6.8,17.34,4.54,4.21,10.89,6.31,19.07,6.31,3.32,0,6.46-.42,9.43-1.24,2.96-.83,5.57-2.01,7.82-3.56l-4.09-10.31c-1.9,1.19-3.9,2.04-6,2.58-2.1.53-4.34.8-6.71.8-3.68,0-6.49-.92-8.45-2.76-1.49-1.4-2.41-3.41-2.76-6.05h28.46v-3.38c0-4.56-.77-8.58-2.31-12.05-1.54-3.47-3.84-6.19-6.89-8.18Zm-11.25,7.42c2.31,0,4.1.82,5.38,2.45,1.11,1.42,1.74,3.51,1.88,6.27h-15.26c.29-2.41.92-4.33,1.91-5.73,1.39-1.99,3.42-2.98,6.09-2.98Z"/>
      <path class="cls-3" d="m1945.51,697.49c-1.03-1.97-2.64-3.61-4.86-4.89-2.67-1.54-5.75-2.31-9.25-2.31-4.03,0-7.54.9-10.54,2.71-2.99,1.81-5.33,4.4-7.02,7.78-1.69,3.38-2.53,7.38-2.53,12s.84,8.62,2.53,12,4.03,5.97,7.02,7.78c2.99,1.81,6.5,2.71,10.54,2.71,3.38,0,6.46-.79,9.25-2.36,2.09-1.18,3.66-2.64,4.71-4.4v6.05c0,3.2-.92,5.68-2.76,7.42-1.84,1.75-4.65,2.62-8.45,2.62-1.84,0-3.78-.16-5.82-.49-2.04-.33-4.02-.82-5.91-1.47-1.9-.65-3.65-1.45-5.25-2.4l-2.76,11.2c2.73,1.66,5.79,2.89,9.2,3.69,3.41.8,7.37,1.2,11.87,1.2,8.24,0,14.52-2.03,18.85-6.09,4.33-4.06,6.49-9.89,6.49-17.47v-29.25c0-2.01.06-4.06.18-6.14.12-2.07.3-4.12.53-6.14h-15.2l-.83,6.22Zm-2.72,23.3c-1.6,1.84-3.77,2.76-6.49,2.76s-4.98-.92-6.58-2.76c-1.6-1.84-2.4-4.5-2.4-8s.8-6.24,2.4-8.05c1.6-1.81,3.79-2.71,6.58-2.71s4.89.9,6.49,2.71c1.6,1.81,2.4,4.49,2.4,8.05s-.8,6.17-2.4,8Z"/>
      <path class="cls-3" d="m1999.87,716.43c0,2.67-.73,4.82-2.18,6.45-1.45,1.63-3.31,2.44-5.56,2.44-2.02,0-3.51-.58-4.49-1.73-.98-1.16-1.47-2.92-1.47-5.29v-27.03h-15.83v26.94c0,6.46,1.38,11.28,4.13,14.45,2.76,3.17,7.01,4.76,12.76,4.76,3.32,0,6.19-.79,8.62-2.36,1.74-1.13,3.22-2.6,4.45-4.41v5.79h15.38v-45.17h-15.83v25.16Z"/>
      <path class="cls-3" d="m2054.11,690.29c-2.67,0-4.98.53-6.94,1.6-1.96,1.07-3.59,2.7-4.89,4.89-.43.73-.81,1.55-1.17,2.41l-.97-7.92h-15.29c.24,2.02.41,4.06.53,6.14.12,2.08.18,4.15.18,6.22v32.81h16v-20.98c0-2.79.34-5.07,1.02-6.85.68-1.78,1.79-3.1,3.33-3.96,1.54-.86,3.53-1.29,5.96-1.29,1.42,0,2.58.09,3.47.27.89.18,2.07.59,3.56,1.24v-13.87c-.71-.3-1.38-.49-2-.58s-1.56-.13-2.8-.13Z"/>
      <path class="cls-3" d="m2098.48,693.13c-3.68-1.9-8-2.85-12.98-2.85s-9.4.95-13.07,2.85c-3.68,1.9-6.52,4.59-8.54,8.09-2.02,3.5-3.02,7.71-3.02,12.63s1.01,9.06,3.02,12.58c2.01,3.53,4.86,6.24,8.54,8.14,3.67,1.9,8.03,2.85,13.07,2.85s9.31-.95,12.98-2.85c3.67-1.9,6.52-4.62,8.54-8.18,2.01-3.56,3.02-7.74,3.02-12.54s-1.01-9.05-3.02-12.58c-2.02-3.53-4.86-6.24-8.54-8.14Zm-6.76,29.74c-1.54,1.87-3.62,2.8-6.22,2.8s-4.77-.93-6.31-2.8c-1.54-1.87-2.31-4.88-2.31-9.03s.77-7.16,2.31-9.02c1.54-1.87,3.65-2.8,6.31-2.8s4.68.93,6.22,2.8c1.54,1.87,2.31,4.88,2.31,9.02s-.77,7.16-2.31,9.03Z"/>
      <path class="cls-3" d="m2152.58,713.72c-2.1-2.04-5.11-3.39-9.03-4.05l-9.6-1.69c-1.3-.24-2.25-.64-2.85-1.2-.59-.56-.89-1.26-.89-2.09,0-1.07.53-1.97,1.6-2.71,1.07-.74,2.87-1.11,5.42-1.11,2.13,0,4.43.4,6.89,1.2,2.46.8,4.61,1.82,6.45,3.07l4.09-10.05c-2.31-1.66-5.02-2.87-8.14-3.65-3.11-.77-6.39-1.16-9.83-1.16-4.21,0-7.86.64-10.94,1.91-3.08,1.28-5.45,3.05-7.11,5.33-1.66,2.28-2.49,4.97-2.49,8.05,0,3.38,1.05,6.12,3.16,8.22,2.1,2.1,5.05,3.51,8.85,4.22l9.6,1.69c1.3.24,2.28.62,2.93,1.16.65.53.98,1.25.98,2.13,0,1.13-.52,2.03-1.56,2.71-1.04.68-2.68,1.02-4.93,1.02-2.85,0-5.71-.41-8.58-1.24-2.88-.83-5.47-1.9-7.78-3.2l-3.82,10.31c2.37,1.48,5.26,2.65,8.67,3.51,3.41.86,7.22,1.29,11.43,1.29s7.68-.61,10.76-1.82c3.08-1.21,5.5-2.96,7.25-5.25,1.75-2.28,2.62-5.05,2.62-8.31,0-3.5-1.05-6.27-3.16-8.31Z"/>
    </g>
    <path class="cls-2" d="m1586.86,104.6c150.44-172.74,457.72-121.85,556.04,81.55,6.07,12.91,11.22,26.13,14.97,39.82-5.79-4.27-11.15-8.7-16.48-13.05-14.58-11.59-33.02-25.43-48.43-36.05-157.95-108.6-324.36-124.63-506.11-72.27h0Z"/>
  </g>
</svg>