<svg width="32" height="32" viewBox="0 0 32 32" fill="none" xmlns="http://www.w3.org/2000/svg">
<path d="M22.666 26.6667H29.3327V24C29.3327 21.7909 27.5418 20 25.3327 20C24.0585 20 22.9235 20.5957 22.191 21.5238M22.666 26.6667H9.33268M22.666 26.6667V24C22.666 23.125 22.4975 22.2894 22.191 21.5238M9.33268 26.6667H2.66602V24C2.66602 21.7909 4.45688 20 6.66602 20C7.94016 20 9.07516 20.5957 9.80768 21.5238M9.33268 26.6667V24C9.33268 23.125 9.50125 22.2894 9.80768 21.5238M9.80768 21.5238C10.7907 19.068 13.1924 17.3333 15.9993 17.3333C18.8063 17.3333 21.208 19.068 22.191 21.5238M19.9993 9.33333C19.9993 11.5425 18.2085 13.3333 15.9993 13.3333C13.7902 13.3333 11.9993 11.5425 11.9993 9.33333C11.9993 7.12419 13.7902 5.33333 15.9993 5.33333C18.2085 5.33333 19.9993 7.12419 19.9993 9.33333ZM27.9993 13.3333C27.9993 14.8061 26.8054 16 25.3327 16C23.8599 16 22.666 14.8061 22.666 13.3333C22.666 11.8606 23.8599 10.6667 25.3327 10.6667C26.8054 10.6667 27.9993 11.8606 27.9993 13.3333ZM9.33268 13.3333C9.33268 14.8061 8.13878 16 6.66602 16C5.19326 16 3.99935 14.8061 3.99935 13.3333C3.99935 11.8606 5.19326 10.6667 6.66602 10.6667C8.13878 10.6667 9.33268 11.8606 9.33268 13.3333Z" stroke="#323232" stroke-width="2" stroke-linecap="round" stroke-linejoin="round"/>
</svg>
